<svg width="54" height="55" viewBox="0 0 54 55" fill="none" xmlns="http://www.w3.org/2000/svg">
<path d="M16.2138 49.2988L23.9597 37.2162L24.6534 37.7113L16.9075 49.7939L16.2138 49.2988Z" fill="black"/>
<path d="M7.42633 36.288L6.94821 35.3455L12.3618 32.2449C12.845 31.9682 13.3017 31.8243 13.732 31.8133C14.1622 31.8023 14.5491 31.9126 14.8925 32.1442C15.2359 32.3759 15.522 32.7172 15.7507 33.1681C15.9667 33.5938 16.0836 34.0156 16.1016 34.4336C16.1171 34.8531 16.0326 35.2383 15.8479 35.5893C15.6633 35.9402 15.3775 36.2266 14.9904 36.4482L14.52 35.5209C14.7345 35.3981 14.8942 35.2363 14.9992 35.0356C15.1004 34.8338 15.1466 34.6112 15.1376 34.3678C15.1287 34.1244 15.0619 33.8798 14.9372 33.6341C14.7997 33.363 14.6273 33.1642 14.4199 33.0377C14.2126 32.9112 13.9767 32.86 13.7121 32.8841C13.4437 32.907 13.153 33.0081 12.8399 33.1874L7.42633 36.288Z" fill="black"/>
<path d="M6.1167 29.8856L14.7577 28.6614L14.8792 29.7112L6.23826 30.9354L6.1167 29.8856Z" fill="black"/>
<path d="M14.8664 25.9478L14.575 27.0167L7.03646 21.4915L7.32329 20.439L16.547 19.7806L16.2557 20.8496L8.51477 21.3174L8.49684 21.3831L14.8664 25.9478ZM11.7 24.6025L12.8743 20.2937L13.7746 20.5551L12.6004 24.8639L11.7 24.6025Z" fill="black"/>
<path d="M15.3744 9.12549L21.4107 15.4285L20.71 16.1735L12.7122 14.6887L12.6538 14.7508L17.3933 19.6997L16.6692 20.4695L10.6329 14.1664L11.3336 13.4215L19.3548 14.9061L19.4132 14.8441L14.662 9.88287L15.3744 9.12549Z" fill="black"/>
<path d="M23.9641 10.6115L24.2545 11.5029L20.6776 12.8388L20.3872 11.9474L23.9641 10.6115Z" fill="black"/>
<path d="M26.3473 14.6604L27.0905 5.96485L30.0296 6.20491C30.7119 6.26064 31.2592 6.42933 31.6714 6.71098C32.0866 6.99003 32.3812 7.34615 32.5552 7.77937C32.7292 8.21258 32.7943 8.68535 32.7505 9.19769C32.7067 9.71002 32.5621 10.1671 32.3168 10.5689C32.0743 10.971 31.7258 11.2788 31.2713 11.4925C30.817 11.7034 30.2515 11.7812 29.5748 11.7259L27.4682 11.5539L27.548 10.6198L29.6207 10.7891C30.0878 10.8272 30.4699 10.7772 30.7669 10.639C31.0638 10.5008 31.2877 10.2996 31.4386 10.0354C31.5925 9.76867 31.6844 9.4612 31.7141 9.11304C31.7439 8.76488 31.7054 8.4482 31.5986 8.16299C31.4947 7.87802 31.3063 7.64601 31.0337 7.46697C30.7612 7.2851 30.3886 7.17485 29.9157 7.13623L28.064 6.98498L27.4006 14.7465L26.3473 14.6604Z" fill="black"/>
<path d="M31.7983 15.887L36.1193 8.3046L40.5874 11.0936L40.1232 11.9081L36.5517 9.67873L35.0916 12.2408L38.4318 14.3257L37.9676 15.1403L34.6274 13.0553L33.1589 15.6321L36.7883 17.8976L36.3241 18.7121L31.7983 15.887Z" fill="black"/>
<path d="M46.6884 20.6755L39.3422 25.387L38.8357 24.4985L42.2487 16.6675L42.2065 16.5935L36.4385 20.2928L35.9152 19.3746L43.2614 14.6631L43.7679 15.5516L40.349 23.4066L40.3912 23.4806L46.1735 19.7721L46.6884 20.6755Z" fill="black"/>
<path d="M44.5238 31.1462C44.8077 31.0393 45.0609 30.904 45.2834 30.7403C45.5089 30.5792 45.6994 30.3899 45.855 30.1724C46.0107 29.9576 46.1272 29.7163 46.2046 29.4483C46.282 29.1803 46.3161 28.8887 46.3068 28.5735C46.2917 28.0567 46.1445 27.5928 45.8653 27.1819C45.5861 26.7711 45.1832 26.4526 44.6566 26.2265C44.1299 26.0004 43.4891 25.9047 42.7342 25.9393C41.9793 25.974 41.3459 26.1296 40.834 26.4061C40.3221 26.6827 39.939 27.0429 39.6849 27.4868C39.4308 27.9306 39.3117 28.4223 39.3275 28.9619C39.3422 29.4616 39.4615 29.8969 39.6855 30.2677C39.9125 30.6411 40.2249 30.9254 40.6227 31.1204C41.0235 31.3181 41.4907 31.4047 42.0242 31.3803L41.9656 31.7071L41.8887 29.0832L42.8252 29.0403L42.9226 32.3627L41.9861 32.4057C41.2681 32.4386 40.6393 32.3139 40.0996 32.0316C39.56 31.7521 39.1362 31.3507 38.8281 30.8274C38.523 30.3068 38.3603 29.7 38.3399 29.0072C38.3173 28.2348 38.479 27.5478 38.8251 26.9461C39.1713 26.3473 39.6744 25.8693 40.3346 25.512C40.9949 25.1575 41.7847 24.9592 42.7042 24.9171C43.3938 24.8854 44.0166 24.9493 44.5726 25.1086C45.1315 25.2706 45.6103 25.5131 46.0091 25.8361C46.4079 26.159 46.7177 26.5485 46.9386 27.0048C47.1594 27.461 47.278 27.9688 47.2944 28.5282C47.3079 28.9882 47.251 29.4202 47.1236 29.8241C46.9991 30.2308 46.8151 30.5961 46.5717 30.92C46.3312 31.2467 46.0395 31.5231 45.6966 31.7492C45.3566 31.9753 44.9763 32.1377 44.5558 32.2366L44.5238 31.1462Z" fill="black"/>
<path d="M36.2401 35.3476L42.5847 41.3402L41.8989 42.1443L36.2358 36.7954L33.6032 39.882L32.9216 39.2382L36.2401 35.3476Z" fill="black"/>
<path d="M35.114 47.5583L31.3339 39.6921L32.2625 39.1875L36.0425 47.0536L35.114 47.5583Z" fill="black"/>
</svg>
